<svg xmlns="http://www.w3.org/2000/svg" xmlns:xlink="http://www.w3.org/1999/xlink" viewBox="0 0 583.69 583.69"><defs><style>.cls-1{fill:url(#radial-gradient);}.cls-2{fill-rule:evenodd;fill:url(#radial-gradient-2);}</style><radialGradient id="radial-gradient" cx="291.84" cy="291.84" fy="270.7000840770816" r="291.84" gradientUnits="userSpaceOnUse"><stop offset="0.45" stop-color="#fff"/><stop offset="1" stop-color="#101010"/></radialGradient><radialGradient id="radial-gradient-2" cx="291.84" cy="291.84" r="236.75" gradientUnits="userSpaceOnUse"><stop offset="0.64"/><stop offset="1"/></radialGradient></defs><g id="Layer_2" data-name="Layer 2"><g id="Layer_1-2" data-name="Layer 1"><circle class="cls-1" cx="291.84" cy="291.84" r="291.84"/><g id="Warstwa_1"><path class="cls-2" d="M137.64,100.46c4.56,16.32,6.58,32.75-.49,49.5-7.75-7.21-23.6-6.25-36.21-3.75-17.64,3.51-36.23,13.56-55.26,26.65-4.47,2.11-4.58,6-.32,7.93,3.91,1.79,9.27,2.71,15.2,5.81,11.72,6.11,25.35,15.71,32.26,21.85,4.92,4.37,8.67,9.25,13.24,13.93,5.75,5.88,12.23,11.67,17.34,18.08-21.6-.11-42.58-1.79-63.61.14a197.16,197.16,0,0,0-33.28,5.77c-7.9.94-6.49,5.71-.28,11.38a56.63,56.63,0,0,0,13.33,9.37c5.1,2.47,11.23,3.93,16.5,7.41,11.52,7.62,21.61,18.82,27.9,25.27,15.5,15.9,21,33.39,44.62,50.37-4.31,7.05-16.6,13.31-24,20.68a203.57,203.57,0,0,0-14.31,15.83C77,403.05,69.12,422.93,58.35,442.29c-5.93,9.69,14.77,3.86,22.32.88s30-2.7,41.15-1.35c26,3.15,40.93,13.21,64.16,9.09,15.44-2.74,30.18-7.07,43.69-14.9,3.88-2.25,7.41-5.62,11.27-8.11,1.22-.79,3.08.25,5,1.83,5.52,4.54,12.68,15.77,17.53,21.92,9,11.38,13.72,25,22.95,35.75,2.32,2.7,5.58,1.34,8.17-3.1,6.75-11.54,11.61-23.81,18.37-32,7.18-8.67,17.61-27.07,25.08-22.24,2,1.31,3.11,3,4.61,4.45a26.05,26.05,0,0,0,6.83,4.49,167.38,167.38,0,0,0,41.93,13.68c10.15,1.94,20.29-.3,32-2.65,13.64-2.73,28.92-5.88,41.54-6.3,10.59-.37,20.69-.73,30,.62,10.27,1.5,15.1,6.37,31,8.12-.15-9.83-7.91-18.67-12.48-27.7-4.78-9.42-9.36-19-15.77-27.56q-19.12-25.43-47.83-45.57c7.64-5.49,16.69-12.86,23.28-20.43,11.56-13.29,19.7-28.85,33.38-41.33A131,131,0,0,1,530,273.13c6.08-3.43,13.18-6.09,18.35-9.52,8.33-5.52,14.35-11.16,14.31-17.22a394.73,394.73,0,0,0-49.1-7.15c-18.16-1.53-37-.1-56.83-1.38a242.13,242.13,0,0,1,38-38.77,206.37,206.37,0,0,1,22.87-16c6.18-3.73,19.61-5,19.19-10.19A107.46,107.46,0,0,0,494,148.64c-16.58-4.8-36.76-12.93-53.91-3a100.91,100.91,0,0,1-3.47-24.39c-.13-8.45,2.32-16.52,2.89-24.71-15.65-6.45-25,8.62-38.33,11.74-16,3.76-33.78,5-47.65,11.82a105,105,0,0,0-29.87,21.25c-10.64-9.08-19.57-19.11-27.88-29.48-2.94-3.67-5.27-6.31-7.41-6.52-5.47-.54-9.38,9.1-16.4,16q-8.9,8.75-17.43,18.3a135,135,0,0,0-29.23-17.5,124.13,124.13,0,0,0-30.85-8.63c-5-.79-10.05-.72-15-1.78-14-3-28-14.73-41.78-11.24ZM125.93,245.6c25.2,29.88,50.56,53.41,76.49,54.27,2.88,5.47,5.76,11.26,10.5,15.51a134.42,134.42,0,0,0,20.93,15.72,5.28,5.28,0,0,1,.05,4.23,69.65,69.65,0,0,1-21-6c-8.81-4-14.87-10.79-23.53-17.06s-18.75-12.4-28.59-18.85c-12.56-8.23-36-19.08-57.85-26.29-17-5.61-34-7.77-37.69-12.83-2.17-3-.28-5.95,6.41-8.72,17.92-1.33,36-1.7,54.23.06Zm217.62,89.94c-.46-1.65.1-3.54-.37-5.2,14.09-5.79,25.86-15.63,33.5-32.71,10.51.62,21-3.29,31.37-10.28,13.82-9.27,25.41-26.15,41.28-40.57,17.95-2.94,34.52-4.61,47.58-3.08,8.93,1.05,16.23,3.59,21.2,8.26-8.82,6.88-23.28,7.07-34.7,11.35-17.24,6.46-34.12,14.13-50.87,22.07-13.37,6.34-28,16.07-41.72,25.69-17.63,12.38-33,24.52-47.27,24.47Zm-63.63,87.88c-2.25.21-4.63-2.07-6.19-3.41-5.6-4.77-8.45-10.48-13.34-14.57-3.27-2.74-9.13-3.72-11.72-6.34-11-11.17-15.57-21.31-12.91-30.28,2.49-8.41,10.07-19.09,25.61-24.73,7.59-2.76,17.3-3.33,28.83-3.77,25.07-1,43.49,11.14,48.44,23,3.55,8.48,2.14,19.93-8.52,32.75-3.21,3.85-9,5.21-13.95,9.27-4.16,3.38-8,8.25-12.74,12.76-1.7,1.64-3,4.58-5.5,4.68-3.65.15-6.79-2-10-1.84-2.81.1-5,2.22-8,2.5Zm-51.51-16.24c-41.19,29.21-75.48,21.69-92.58,15.25-16.57-6.24-40.29-34.93,4.27-63.42a185.19,185.19,0,0,0,79.53,17.76A87.36,87.36,0,0,0,228.41,407.18Zm120.79-1.47A82.4,82.4,0,0,0,360,377.57c26.31,1.72,52.54-4.66,78.67-19.95,30.24,27.15,19.74,53.1,8.57,62.3-13.47,11.1-66.8,15.58-98-14.21ZM207.08,145.8c10,9.3,19.67,18.39,24.65,29.56,3.18-10.23,7.14-19.19,12.22-26.29-30.92-26.21-62.86-17.42-73.75-7.17-8.09,7.62-19.58,25-14.61,45.07,2.6,10.52,13.08,19.8,24.2,32.8a87.51,87.51,0,0,1,5.87-25.6c3.36-8.91,10.62-16.45,14.93-25.06,3.8-7.59,3.5-15.46,6.49-23.31Zm28.51,34.84A38,38,0,0,0,247,199.77a73.68,73.68,0,0,1,30.35-3.55c5.46-7.38,8.21-15.47,10.57-23.66,2.6,8.2,5.65,16.41,11.74,24.65,10-2.12,20.36-.49,30.72,1.67,5.87-8.08,9.93-15.57,10-21.78-12.11-16.34-29.35-28.71-52.78-36.29-21.42,8.4-40.06,20.1-51.94,39.83Zm94.87-31.5c7.57,7.59,11,17,11.6,27.69,11.12-10.1,16.72-25.85,27.69-32.91,4.18,27.64,14.42,32.56,20.28,49.43a108.66,108.66,0,0,1,6.11,27.85c14.27-15.49,23-21.86,25.63-34.15,1.88-8.91-.54-22.39-4.21-31.11C401.5,117.74,359,124.65,330.46,149.14Zm112,8.65c-4.43,25.23-19,48-37.76,69.71-3.83,21.57-12.45,42.34-23.24,62.74,21.55-4.64,41-31.27,51-52.53C443.21,215.07,450.93,180.9,442.46,157.79Zm-103,42.39a85.13,85.13,0,0,1,14.06-21.9c26.56,15.05,40.86,30.25,37.26,45.67q-7.32,6.75-18.12,6.53C366.1,216.27,354.5,206.65,339.45,200.18ZM174.07,227.79c2.37,19.57,11.57,40.85,23.24,62.74C176,286.73,157.14,261.19,147,241.8c-12.27-23.39-22.31-53.85-12.7-81.1,5.22,27.45,19.86,48.94,39.79,67.09Zm62-25.87c-14.25,6.8-25.86,16.1-32.77,29.86C189,228,183.85,222.18,186,214.67c2.55-9.07,15.72-20.57,36.34-33.78C228,186.76,233.05,193.34,236.08,201.92Zm125.41,28.27c-7.11-5.35-14.81-4.62-21.51-7.32-8.62-3.46-13.05-13.69-24-11.38,10.1,8.91,18.27,17.47,22.19,25.22,3.39-.34,6.45-2,9.62-2.94,4.63-1.31,10.21.71,13.72-3.58Zm-148.61,1.3c5.15-5.67,16.77-4.69,24.51-9.27,9.64-5.71,17.71-13.43,23.63-10.44q-15.22,8.11-24.65,25.51a47.37,47.37,0,0,0-10.58-3.62c-4-.93-9.11-.44-12.91-2.18Zm120.63,8.7c-6.64-15.47-27.1-21.95-37.71-34a92,92,0,0,1-8.69-11.49,74.82,74.82,0,0,1-9.72,13.05c-10.38,11.4-26.78,15.48-37,31.6,12.32,3.42,19.14,11.66,22.18,23.2a50,50,0,0,0,14.83-14.7c4.05-6.18,4.64-13.94,9.67-19.81,6.49,5.57,5.55,13.62,10.13,19.73a54.12,54.12,0,0,0,16,14.34c3.55-9.32,9.4-17.2,20.3-21.89ZM190,236.13c23.92,3.3,46.51,3,56.85,14.29a24.74,24.74,0,0,1,6.92,17c0,7.63-13.05,14.94-8.82,28.9,5.36-8.52,8-18.46,15-24.39,3.17-2.7,6.12-6.1,9.45-8.89,6.16-5.15,12.78-10.34,18.48-20.07,8.63,14.66,22.34,22.25,32.16,34.42,4.63,5.73,6.48,13.67,11.47,17.33.6-13.63-13.76-22.69-8.59-35.27,1.33-3.23,3.48-5.79,5.58-8.38,7.74-9.58,23.61-13.34,45.19-14.2,4.29-.16,8.72-1.61,13.64-.72-.71,15.67-5,30.14-13.66,43.12a91.3,91.3,0,0,1-33.89,30.68c.39-5.77-1-8-3.57-7.69-3.8.44-11.7,13.4-17.74,14.21A68.87,68.87,0,0,0,314,300.72c-3.25-8-12.86-13.12-12.68-23.41,2.46,0,5.22,5.7,9.13,7.25.47-4.39-4.13-8-6.86-12.5-4.71-7.78-10.2-14.72-15.75-9.54-2.59-3.86-5.84-2.78-9.46,1.25-3.41,3.78-10.63,12.77-11,17.45,2.76.11,8.34-9.24,11.75-8.84C277,284.9,268.45,289.64,264,298.73c-2.7,5.44-2.94,14.17-7.14,16.85-6.5-3.95-9.57-10-12.26-11.61s-4.69.95-5,7.7c-15.22-9.46-28.37-20.78-37.37-35.84-6.56-11-10.9-24-12.22-39.7Z"/></g></g></g></svg>